<svg width="40" height="40" xmlns="http://www.w3.org/2000/svg">
 <!-- Created with Method Draw - http://github.com/duopixel/Method-Draw/ -->

 <g>
  <title>background</title>
  <rect fill="#fff" id="canvas_background" height="42" width="42" y="-1" x="-1"/>
  <g display="none" overflow="visible" y="0" x="0" height="100%" width="100%" id="canvasGrid">
   <rect fill="url(#gridpattern)" stroke-width="0" y="0" x="0" height="100%" width="100%"/>
  </g>
 </g>
 <g>
  <title>Layer 1</title>
  <g id="svg_10">
   <g transform="matrix(0.07111110263400633,0,0,0.07111110263400633,0,0) " id="svg_4">
    <path id="svg_5" stroke-width="18.446" stroke-linecap="round" stroke="#555" fill="none" d="m4078.125488,2581.920503l199.69,115.29l-0.00001,230.58l-199.69,115.29l-199.69,-115.29l0.00001,-230.58l199.69,-115.29z"/>
    <g id="svg_6" fill-rule="evenodd" fill="#555">
     <path id="svg_7" d="m4013.735488,2750.350874a9.9393,9.9393 0 0 0 -6.832,3.0059l-51.805,51.805a9.9393,9.9393 0 0 0 0,14.055l51.805,51.805a9.9393,9.9393 0 1 0 14.055,-14.055l-44.775,-44.777l44.775,-44.777a9.9393,9.9393 0 0 0 -7.2226,-17.061l-0.0004,-0.0009z"/>
     <path id="svg_8" d="m4142.215488,2750.350874a9.9393,9.9393 0 0 0 -6.9238,17.066l44.775,44.777l-44.775,44.777a9.9393,9.9393 0 1 0 14.055,14.055l51.805,-51.805a9.9393,9.9393 0 0 0 0,-14.055l-51.805,-51.805a9.9393,9.9393 0 0 0 -7.1309,-3.0117l-0.0003,0.0017z"/>
     <path id="svg_9" d="m4090.135488,2734.660874a9.9393,9.9393 0 0 0 -9.6406,8.0742l-27.861,135.57a9.9393,9.9393 0 1 0 19.471,4.002l27.861,-135.57a9.9393,9.9393 0 0 0 -9.8301,-12.076l-0.0003,-0.0002z"/>
    </g>
   </g>
  </g>
  <g stroke="null" id="svg_20">
   <g stroke="null" transform="matrix(0.08569868477168116,0,0,0.08181366556836486,-721.7404825557192,-687.8821217361024) " id="svg_14">
    <path stroke="#555" id="svg_15" stroke-width="18.446" stroke-linecap="round" fill="none" d="m8658.0581,8421.789275l199.69,115.29l-0.00001,230.58l-199.69,115.29l-199.69,-115.29l0.00001,-230.58l199.69,-115.29z"/>
    <g stroke="null" id="svg_16" fill-rule="evenodd" fill="#555">
     <path stroke="null" id="svg_17" d="m8593.6681,8590.219646a9.9393,9.9393 0 0 0 -6.832,3.0059l-51.805,51.805a9.9393,9.9393 0 0 0 0,14.055l51.805,51.805a9.9393,9.9393 0 1 0 14.055,-14.055l-44.775,-44.777l44.775,-44.777a9.9393,9.9393 0 0 0 -7.2226,-17.061l-0.0004,-0.0009z"/>
     <path stroke="null" id="svg_18" d="m8722.1481,8590.219646a9.9393,9.9393 0 0 0 -6.9238,17.066l44.775,44.777l-44.775,44.777a9.9393,9.9393 0 1 0 14.055,14.055l51.805,-51.805a9.9393,9.9393 0 0 0 0,-14.055l-51.805,-51.805a9.9393,9.9393 0 0 0 -7.1309,-3.0117l-0.0003,0.0017z"/>
     <path stroke="null" id="svg_19" d="m8670.0681,8574.529646a9.9393,9.9393 0 0 0 -9.6406,8.0742l-27.861,135.57a9.9393,9.9393 0 1 0 19.471,4.002l27.861,-135.57a9.9393,9.9393 0 0 0 -9.8301,-12.076l-0.0003,-0.0002z"/>
    </g>
   </g>
  </g>
  <g stroke="null" id="svg_26">
   <path stroke="null" id="svg_24" fill="#007fff" d="m33.312981,20.184445c0.005163,-0.140892 0.126924,-0.307843 0.270699,-0.370983l2.919148,-1.282208c0.143678,-0.063141 0.240502,-0.228639 0.215079,-0.367908l-0.672998,-2.720687c-0.043055,-0.135851 -0.209624,-0.254357 -0.369959,-0.263499l-3.319693,-0.188311c-0.160432,-0.009142 -0.351159,-0.119446 -0.423826,-0.245129l-0.451393,-0.72804c-0.080849,-0.121838 -0.079973,-0.320744 0.002046,-0.441985l1.676309,-2.479146c0.082018,-0.12124 0.062439,-0.307245 -0.043444,-0.413276l-2.258716,-2.020159c-0.118839,-0.094925 -0.331093,-0.116627 -0.471556,-0.048189l-2.888464,1.405926c-0.140561,0.068438 -0.368011,0.064593 -0.505552,-0.008373l-0.780537,-0.38884c-0.141925,-0.066131 -0.262809,-0.23556 -0.268556,-0.376452l-0.118839,-2.90447c-0.005747,-0.140892 -0.136372,-0.289473 -0.290181,-0.330228l-3.128382,-0.656526c-0.158192,-0.02512 -0.349795,0.055878 -0.425871,0.180109l-1.553476,2.536392c-0.076076,0.124231 -0.204753,0.224709 -0.285992,0.223342l-0.074128,0c-0.450808,0 -1.04393,0.039217 -1.04393,0.039217c-0.160238,0.010595 -0.366452,-0.075444 -0.458114,-0.191302l-1.898985,-2.398149c-0.091662,-0.115772 -0.293395,-0.179682 -0.448275,-0.142088l-2.988113,0.88414c-0.149133,0.052631 -0.260861,0.210697 -0.248295,0.351247l0.254724,2.850471c0.012566,0.14055 -0.087668,0.318096 -0.222677,0.394565l-0.950028,0.576981c-0.129067,0.083988 -0.356127,0.108681 -0.504675,0.054767l-3.076463,-1.117222c-0.148548,-0.053913 -0.357977,-0.012303 -0.465517,0.092447l-1.917396,2.085521c-0.094,0.11432 -0.091467,0.299726 0.005747,0.411995l1.961814,2.266399c0.097214,0.112269 0.121469,0.308783 0.053964,0.436773l-0.533508,1.120298c-0.0564,0.132006 -0.232028,0.260509 -0.39022,0.285543l-3.263878,0.517001c-0.158192,0.025034 -0.308202,0.159432 -0.333528,0.298701c0,0 -0.319306,1.760505 -0.319306,2.811425l0,0.005639c0.000097,0.006237 0.123807,0.050837 0.274693,0.099197l3.045877,0.975818c0.150984,0.048359 0.293006,0.202153 0.315702,0.341677l0.285505,1.365513c0.035652,0.137474 -0.031463,0.328519 -0.149036,0.42464l-2.412427,1.970689c-0.117572,0.096121 -0.159556,0.279733 -0.09322,0.40815l1.315701,2.23752c0.081044,0.121753 0.275667,0.196086 0.432495,0.165157l3.177379,-0.626195c0.156828,-0.03093 0.372102,0.030246 0.478472,0.135936l1.171244,1.068265c0.116209,0.097402 0.178843,0.288789 0.1391,0.425409l-0.808688,2.780923c-0.039743,0.13662 0.038866,0.31015 0.174654,0.385594l2.480419,1.226074c0.143873,0.062884 0.353886,0.032211 0.466783,-0.068096l2.300797,-2.045791c0.112897,-0.100393 0.332262,-0.152512 0.487434,-0.115943l1.635981,0.31895c0.158192,0.024778 0.329242,0.154477 0.379992,0.288277l1.026592,2.704112c0.05075,0.133715 0.223748,0.246411 0.384473,0.250427c0,0 0.086109,0.002136 0.276446,0.002136c0.986849,0 2.603836,-0.185406 2.603836,-0.185406c0.159361,-0.018284 0.316871,-0.146104 0.349893,-0.28409l0.679524,-2.8327c0.033119,-0.137987 0.184882,-0.287422 0.337327,-0.332108l1.439313,-0.478639c0.147867,-0.055366 0.371128,-0.028281 0.496298,0.06015l2.524837,1.784087c0.12517,0.088431 0.336353,0.096035 0.469316,0.016832l2.370152,-1.576551c0.122735,-0.09108 0.17631,-0.273325 0.119131,-0.405074l-1.181959,-2.722738c-0.057179,-0.13175 -0.022404,-0.330057 0.077245,-0.440618l0.782485,-0.935575c0.090395,-0.116541 0.295051,-0.199675 0.454899,-0.184552l3.230369,0.304169c0.159848,0.015038 0.342587,-0.078605 0.406195,-0.208048l1.058152,-2.5381c0.046951,-0.134825 -0.020358,-0.313653 -0.149717,-0.397299l-2.680886,-1.735385c-0.129359,-0.083732 -0.222677,-0.267002 -0.207383,-0.407381l0.06955,-0.965138zm-13.291436,8.375834c-5.402781,0 -9.782769,-3.841669 -9.782769,-8.580806c0,-4.739052 4.379793,-8.580806 9.782769,-8.580806s9.782769,3.841669 9.782769,8.580806s-4.379793,8.580806 -9.782769,8.580806z"/>
   <ellipse stroke="null" fill="#007fff" transform="matrix(0.0974088349632796,0,0,0.08544066543364015,-2425.17583665039,-2123.4395645439167) " id="svg_25" ry="2" cy="25061.206915" cx="25375.048923"/>
  </g>
 </g>
</svg>